<svg xmlns="http://www.w3.org/2000/svg" width="400" height="400" enable-background="new 0 0 400 400" viewBox="0 0 400 400"><path fill="#0B4870" d="M76.815,216.759l-13.755,13.914v6.31c0,0.097,0,0.18-0.013,0.274v68.893H46.924v-78.057l-0.055-0.043
						v-49.31c0-4.53,3.559-8.09,8.088-8.09s8.104,3.56,8.104,8.09v28.96l2.417-2.262c3.081-3.244,8.241-3.244,11.338,0
						C80.044,208.503,80.044,213.68,76.815,216.759z"/><path fill="#2A94F4" d="M95.229,266.878L82.945,243.73l-3.863-7.279l-3.865-7.28l-14.502-27.325
						c-1.189-2.233-3.512-3.632-6.038-3.632c-2.529,0-4.851,1.398-6.034,3.631l-36.447,68.662c-1.128,2.118-1.059,4.67,0.177,6.728
						c1.235,2.052,3.46,3.309,5.857,3.309h29.614h6.831h6.834h29.613h0.011c3.772,0,6.834-3.06,6.834-6.832
						c0-1.281-0.357-2.485-0.973-3.511L95.229,266.878z"/><path fill="#2A94F4" d="M90.779,237.269l-10.936-20.604l-3.441-6.479l-3.44-6.482l-12.911-24.326
						c-1.058-1.989-3.121-3.232-5.374-3.232s-4.318,1.243-5.371,3.232l-32.445,61.12c-1.002,1.886-0.94,4.158,0.157,5.989
						c1.1,1.829,3.079,2.945,5.215,2.945h26.358h6.084h6.084h26.36h0.009c3.36,0,6.084-2.723,6.084-6.083
						c0-1.141-0.314-2.212-0.86-3.125L90.779,237.269z"/><path fill="#2A94F4" d="M87.932,207.437l-10.076-18.978l-3.167-5.969l-3.166-5.968l-11.894-22.407
						c-0.975-1.831-2.877-2.979-4.952-2.979c-2.073,0-3.976,1.147-4.949,2.979l-29.882,56.298c-0.923,1.735-0.868,3.829,0.146,5.514
						c1.013,1.687,2.835,2.716,4.805,2.716h24.278h5.603h5.604h24.28h0.009c3.093,0,5.601-2.51,5.601-5.602
						c0-1.054-0.287-2.041-0.794-2.88L87.932,207.437z"/><g><rect width="12.573" height="31.435" x="221.835" y="237.158" fill="#FCD2B1"/><rect width="12.575" height="31.435" x="133.819" y="237.158" fill="#FCD2B1"/><path fill="#FCD2B1" d="M246.975 274.872v25.152h12.576v-31.433c0 3.472-2.809 6.28-6.28 6.28H246.975zM108.678 268.592v31.433h12.577v-25.152h-6.296C111.486 274.872 108.678 272.063 108.678 268.592z"/><g><path fill="#FFE3CA" d="M127.534 237.158v-12.573c0-3.472 2.813-6.288 6.285-6.288h100.589c3.472 0 6.288 2.815 6.288 6.288v12.573c0 3.473-2.815 6.288-6.288 6.288H133.819C130.348 243.446 127.533 240.631 127.534 237.158zM108.678 268.592c0 3.472 2.809 6.28 6.281 6.28h138.312c3.472 0 6.28-2.809 6.28-6.28 0-3.474-2.809-6.28-6.28-6.28H114.959C111.486 262.312 108.678 265.118 108.678 268.592z"/></g></g><g><path fill="#0E538C" d="M335.389,142.775c-0.942,1.718-0.66,3.858,0.756,5.208c7.652,7.3,12.425,17.583,12.425,28.967
						c0,19.968-14.688,36.562-33.825,39.551l-11.645,0.112c-19.51-2.66-34.597-19.434-34.597-39.663
						c0-11.387,4.775-21.67,12.43-28.967c1.407-1.347,1.704-3.48,0.763-5.19c-2.531-4.617-3.918-9.952-3.747-15.617
						c0.503-16.633,14.455-29.929,31.092-29.659c16.643,0.269,30.101,13.895,30.101,30.599
						C339.141,133.428,337.777,138.42,335.389,142.775z"/><path fill="#0B4870" d="M293.624,180.942l9.924,10.04v4.556c0,0.068,0,0.129,0.011,0.198v104.175h11.637V189.12l0.039-0.029
						v-35.586c0-3.27-2.569-5.839-5.837-5.839c-3.269,0-5.85,2.57-5.85,5.839v20.902l-1.742-1.635c-2.224-2.342-5.948-2.342-8.182,0
						C291.295,174.982,291.295,178.72,293.624,180.942z"/></g><g><path fill="#2A94F4" d="M317.967,181.073c0-16.704,13.459-30.329,30.098-30.598c16.64-0.271,30.591,13.025,31.096,29.657
						c0.17,5.667-1.214,11.001-3.75,15.618c-0.938,1.709-0.645,3.844,0.766,5.188c7.652,7.3,12.429,17.583,12.429,28.969
						c0,20.229-15.087,37.004-34.597,39.664l-11.645-0.113c-19.137-2.989-33.828-19.584-33.828-39.551
						c0-11.386,4.775-21.669,12.429-28.969c1.415-1.349,1.696-3.489,0.755-5.207C319.33,191.378,317.967,186.384,317.967,181.073z"/><path fill="#0B4870" d="M332.432,235.396l9.923,10.042v4.556c0,0.068,0,0.129,0.011,0.198v49.719h11.637v-56.334l0.039-0.03
						v-35.586c0-3.268-2.569-5.838-5.837-5.838c-3.27,0-5.85,2.57-5.85,5.838v20.902l-1.742-1.635c-2.222-2.342-5.947-2.342-8.181,0
						C330.1,229.44,330.1,233.176,332.432,235.396z"/></g><g><path fill="#FFBE55" d="M385.801,307.535c0.055,0.37,0.096,0.754,0.096,1.137c0,3.521-2.863,6.371-6.385,6.371H20.488
					c-3.535,0-6.385-2.85-6.385-6.371c0-0.383,0.041-0.767,0.096-1.137c-0.055-0.37-0.096-0.754-0.096-1.137
					c0-3.521,2.85-6.385,6.385-6.385h359.023c3.521,0,6.385,2.863,6.385,6.385C385.896,306.781,385.855,307.165,385.801,307.535z"/></g></svg>