<svg xmlns="http://www.w3.org/2000/svg" width="400" height="400" enable-background="new 0 0 400 400" viewBox="0 0 400 400"><path fill="#0B4870" d="M283.396,194.271l-28.299,28.633v12.987c0,0.197,0,0.367-0.031,0.565v141.771h-33.178V217.595
				l-0.115-0.088V116.035c0-9.318,7.326-16.647,16.645-16.647c9.322,0,16.68,7.329,16.68,16.647v59.599l4.971-4.657
				c6.336-6.677,16.959-6.677,23.328,0C290.039,177.284,290.039,187.937,283.396,194.271z"/><path fill="#0E538C" d="M331.596,287.918l-28.25-53.223l-8.885-16.74l-8.887-16.74l-33.355-62.839
				c-2.729-5.138-8.068-8.348-13.881-8.348c-5.814,0-11.152,3.21-13.881,8.347l-83.811,157.889
				c-2.585,4.871-2.428,10.74,0.413,15.466c2.842,4.727,7.954,7.615,13.466,7.615h68.096h15.713h15.715h68.096h0.021
				c8.678,0,15.715-7.032,15.715-15.713c0-2.951-0.814-5.715-2.23-8.074L331.596,287.918z"/><path fill="#0E538C" d="M321.357,219.829l-25.148-47.379l-7.91-14.902l-7.912-14.902l-29.693-55.939
				c-2.426-4.572-7.18-7.431-12.355-7.431c-5.178,0-9.928,2.858-12.357,7.431l-74.606,140.552
				c-2.302,4.337-2.161,9.561,0.367,13.769c2.529,4.208,7.08,6.779,11.988,6.779h60.617h13.99h13.988h60.619h0.018
				c7.729,0,13.99-6.261,13.99-13.987c0-2.629-0.725-5.088-1.986-7.188L321.357,219.829z"/><path fill="#0E538C" d="M314.805,151.233l-23.162-43.64l-7.287-13.726l-7.285-13.727l-27.352-51.524
				c-2.236-4.212-6.613-6.845-11.379-6.845c-4.77,0-9.146,2.633-11.383,6.845l-68.719,129.458
				c-2.119,3.994-1.989,8.806,0.338,12.683c2.331,3.875,6.522,6.243,11.042,6.243h55.833h12.887h12.883h55.836h0.016
				c7.117,0,12.887-5.767,12.887-12.884c0-2.421-0.668-4.687-1.828-6.62L314.805,151.233z"/><g><path fill="#0B4870" d="M196.74,194.271l-28.299,28.633v12.987c0,0.197,0,0.367-0.031,0.565v141.771h-33.178V217.595
				l-0.115-0.088V116.035c0-9.318,7.326-16.647,16.646-16.647c9.321,0,16.679,7.329,16.679,16.647v59.599l4.972-4.657
				c6.336-6.677,16.958-6.677,23.327,0C203.383,177.284,203.383,187.937,196.74,194.271z"/><path fill="#2A94F4" d="M234.641,297.409l-25.279-47.629l-7.953-14.98l-7.952-14.981l-29.851-56.234
				c-2.44-4.598-7.218-7.47-12.421-7.47c-5.204,0-9.98,2.872-12.422,7.469L63.76,304.878c-2.314,4.359-2.173,9.611,0.369,13.841
				c2.543,4.229,7.118,6.814,12.051,6.814h60.938h14.062h14.063h60.939h0.02c7.766,0,14.062-6.294,14.062-14.062
				c0-2.642-0.73-5.114-1.996-7.226L234.641,297.409z"/><path fill="#2A94F4" d="M225.479,236.477l-22.506-42.398l-7.079-13.337l-7.08-13.336l-26.572-50.06
				c-2.172-4.093-6.425-6.65-11.057-6.65c-4.633,0-8.885,2.558-11.059,6.649L73.36,243.125c-2.06,3.881-1.934,8.556,0.329,12.321
				c2.263,3.766,6.335,6.066,10.728,6.066h54.247h12.519h12.519h54.248h0.016c6.916,0,12.52-5.603,12.52-12.518
				c0-2.352-0.648-4.553-1.775-6.433L225.479,236.477z"/><path fill="#2A94F4" d="M219.615,175.09l-20.729-39.053l-6.521-12.283l-6.521-12.284L161.37,65.361
				c-2.001-3.77-5.918-6.126-10.184-6.126c-4.267,0-8.184,2.356-10.186,6.125L79.503,181.214c-1.896,3.574-1.781,7.88,0.303,11.349
				c2.086,3.468,5.836,5.588,9.882,5.588h49.964h11.532h11.53h49.968h0.014c6.369,0,11.531-5.161,11.531-11.53
				c0-2.166-0.598-4.193-1.635-5.925L219.615,175.09z"/></g></svg>