<svg xmlns="http://www.w3.org/2000/svg" width="400" height="400" enable-background="new 0 0 400 400" viewBox="0 0 400 400"><path fill="#FCD2B1" d="M371.17,326.627c0,1.611-0.15,3.182-0.45,4.701c0.3,1.52,0.45,3.09,0.45,4.699
					c0,1.51-0.16,3.02-0.38,4.48c0.22,1.449,0.38,2.959,0.38,4.471c0,13.869-11.28,25.1-25.15,25.1H53.98
					c-13.93,0-25.15-11.23-25.15-25.1c0-1.512,0.16-3.021,0.38-4.471c-0.22-1.461-0.38-2.971-0.38-4.48
					c0-1.609,0.15-3.18,0.45-4.699c-0.3-1.52-0.45-3.09-0.45-4.701c0-1.51,0.16-3.02,0.38-4.469c-0.22-1.461-0.38-2.971-0.38-4.48
					c0-13.869,11.22-25.15,25.15-25.15h292.04c13.87,0,25.15,11.281,25.15,25.15c0,1.51-0.16,3.02-0.38,4.48
					C371.01,323.607,371.17,325.117,371.17,326.627z"/><path fill="#2A94F4" d="M128.251 177.184c-25.313 0-45.833-20.52-45.833-45.832 0-5.064 4.104-9.168 9.167-9.168 25.313 0 45.833 20.52 45.833 45.834C137.417 173.08 133.314 177.184 128.251 177.184zM146.584 210.572c25.313 0 45.833-20.52 45.833-45.832 0-5.064-4.104-9.168-9.167-9.168-25.313 0-45.833 20.521-45.833 45.834C137.417 206.469 141.521 210.572 146.584 210.572z"/><path fill="#0E538C" d="M146.584,113.033v183.33c0,5.133-4.032,9.168-9.167,9.168s-9.167-4.035-9.167-9.168v-183.33
					c0-5.135,4.032-9.168,9.167-9.168S146.584,107.898,146.584,113.033z"/><path fill="#2A94F4" d="M143.469 32.305c-1.652-1.65-3.851-2.383-6.051-2.383-2.201 0-4.399.732-6.052 2.383-.914.732-21.448 20.045-21.448 44.061 0 24.018 20.534 42.717 21.448 43.451 1.652 1.65 3.851 2.383 6.052 2.383 2.201 0 4.399-.732 6.051-2.383.915-.734 21.448-19.434 21.448-43.451C164.917 52.35 144.383 33.037 143.469 32.305zM247.416 259.697c-25.313 0-45.833-20.52-45.833-45.832 0-5.064 4.104-9.168 9.167-9.168 25.313 0 45.833 20.521 45.833 45.834C256.583 255.594 252.479 259.697 247.416 259.697zM271.749 203.857c25.313 0 45.833-20.52 45.833-45.832 0-5.064-4.104-9.168-9.167-9.168-25.313 0-45.833 20.52-45.833 45.834C262.583 199.754 266.686 203.857 271.749 203.857z"/><path fill="#0E538C" d="M265.749,158.025v129.004c0,5.133-4.032,9.168-9.167,9.168s-9.167-4.035-9.167-9.168V158.025
						c0-5.135,4.032-9.168,9.167-9.168S265.749,152.891,265.749,158.025z"/><path fill="#2A94F4" d="M262.634,68.125c-1.652-1.65-3.851-2.383-6.051-2.383c-2.201,0-4.399,0.732-6.052,2.383
						c-0.914,0.732-21.448,20.045-21.448,44.061c0,24.018,20.534,42.717,21.448,43.451c1.652,1.65,3.851,2.383,6.052,2.383
						c2.201,0,4.399-0.732,6.051-2.383c0.915-0.734,21.448-19.434,21.448-43.451C284.082,88.17,263.548,68.857,262.634,68.125z"/><g><path fill="#FFBE55" d="M371.15,310.908c-0.46,13.459-11.56,24.219-25.13,24.219H53.98c-13.63,0-24.67-10.76-25.13-24.219
					c0.45-13.471,11.49-24.281,25.13-24.281h292.04C359.6,286.627,370.69,297.438,371.15,310.908z"/></g></svg>